<svg width="167" height="44" viewBox="0 0 167 44" fill="none" xmlns="http://www.w3.org/2000/svg"><path fill-rule="evenodd" clip-rule="evenodd" d="M16.9573 0.643654L0.197365 10.214C0.0729005 10.2861 0 10.4093 0 10.5517C0 10.6942 0.0711225 10.8173 0.197365 10.8894L9.46461 16.181L19.3239 10.5517L29.1833 16.181V27.4397L19.3239 33.069L26.8167 37.3477C28.3209 38.2077 30.0439 38.2077 31.5499 37.3477L36.676 34.4214C38.1803 33.5614 39.0426 32.086 39.0426 30.3678V13.2547C39.0426 11.5365 38.182 10.0611 36.676 9.20109L21.6905 0.643654C20.1845 -0.214551 18.4616 -0.214551 16.9573 0.643654Z" fill="url(#paint0_linear_7_33)"></path><path fill-rule="evenodd" clip-rule="evenodd" d="M16.9449 20.4543L9.46456 16.1826V35.9653C9.46456 37.68 10.3251 39.1537 11.8276 40.0119L18.7176 43.9459C18.842 44.018 18.9861 44.018 19.1105 43.9459C19.235 43.8738 19.3061 43.7525 19.3061 43.61V24.5009C19.3061 22.7845 18.4473 21.3108 16.9449 20.4543Z" fill="url(#paint1_linear_7_33)"></path><path fill-rule="evenodd" clip-rule="evenodd" d="M65.7289 19.6665C65.7289 18.9363 65.6019 18.2799 65.3495 17.6989C65.097 17.1179 64.7335 16.617 64.2619 16.1977C63.7904 15.7784 63.2156 15.4581 62.5393 15.2351C61.863 15.0121 61.1072 14.9006 60.2737 14.9006H54.6137V29.0994H57.1158V24.536H59.9736C60.7706 24.536 61.5152 24.4308 62.2154 24.2204C62.9124 24.0116 63.5205 23.7038 64.0444 23.2971C64.5636 22.8904 64.9748 22.3847 65.278 21.7754C65.5781 21.1677 65.7289 20.4642 65.7289 19.6665ZM63.1648 19.7168C63.1648 20.4909 62.8886 21.1128 62.3313 21.5792C61.7772 22.0487 61.0183 22.2811 60.0594 22.2811H57.1158V17.1509H60.0578C61.004 17.1509 61.7598 17.3644 62.3202 17.7931C62.8854 18.2203 63.1648 18.8625 63.1648 19.7168ZM82.69 21.9796C82.69 20.9793 82.5042 20.0324 82.1359 19.1405C81.766 18.2485 81.2532 17.4697 80.5974 16.807C79.9417 16.1443 79.1543 15.6214 78.2398 15.2351C77.3237 14.8504 76.3123 14.6572 75.2041 14.6572C74.0975 14.6572 73.0846 14.8535 72.1685 15.2461C71.2524 15.6387 70.4602 16.1694 69.7902 16.8384C69.1202 17.5073 68.601 18.2894 68.2311 19.1813C67.8612 20.0748 67.677 21.0201 67.677 22.0204C67.677 23.0207 67.8612 23.9676 68.2311 24.8611C68.5994 25.753 69.1138 26.5303 69.7695 27.193C70.4253 27.8557 71.2127 28.3802 72.1288 28.7649C73.0449 29.1496 74.0563 29.3428 75.1644 29.3428C76.2726 29.3428 77.284 29.1465 78.2001 28.7539C79.1162 28.3613 79.9084 27.8306 80.5784 27.1616C81.2484 26.4911 81.7676 25.7106 82.1375 24.8187C82.5042 23.9268 82.69 22.9799 82.69 21.9796ZM80.0433 22.0188C80.0433 22.7082 79.9243 23.3599 79.6845 23.977C79.4464 24.5926 79.1146 25.1265 78.6907 25.5787C78.2667 26.0326 77.7571 26.389 77.1633 26.6544C76.5679 26.9182 75.9154 27.0501 75.2041 27.0501C74.4929 27.0501 73.8372 26.9151 73.2354 26.645C72.6337 26.3749 72.1177 26.009 71.6874 25.5505C71.2572 25.0904 70.9222 24.5533 70.6825 23.9378C70.4427 23.3222 70.3236 22.6689 70.3236 21.9796C70.3236 21.2902 70.4427 20.6385 70.6825 20.023C70.9222 19.4074 71.2524 18.8735 71.6779 18.4213C72.1018 17.9674 72.6115 17.6094 73.2053 17.3456C73.8006 17.0818 74.4532 16.9499 75.1644 16.9499C75.8757 16.9499 76.5314 17.0849 77.1331 17.355C77.7349 17.6251 78.2509 17.991 78.6811 18.4495C79.1114 18.9096 79.4464 19.4467 79.6861 20.0622C79.9243 20.6778 80.0433 21.3295 80.0433 22.0188ZM85.7447 29.0978H95.7946V26.846H88.2468V14.8991H85.7447V29.0978ZM102.542 23.4384L108.244 14.8991H105.352L101.291 21.1866L97.2711 14.8991H94.2974L99.9988 23.4996V29.0978H102.542V23.4384ZM122.024 27.1302V21.1662H115.912V23.3379H119.583V26.009C119.144 26.3372 118.628 26.5963 118.035 26.7973C117.441 26.9936 116.801 27.0909 116.117 27.0909C115.379 27.0909 114.712 26.9622 114.116 26.7062C113.523 26.4487 113.01 26.0907 112.578 25.6368C112.148 25.1846 111.816 24.646 111.582 24.021C111.349 23.3991 111.235 22.7192 111.235 21.989C111.235 21.2996 111.354 20.648 111.594 20.0387C111.832 19.4263 112.16 18.8924 112.578 18.4323C112.994 17.9722 113.488 17.6078 114.054 17.344C114.621 17.0802 115.234 16.9483 115.89 16.9483C116.341 16.9483 116.755 16.986 117.131 17.0598C117.508 17.1336 117.852 17.2357 118.166 17.3644C118.481 17.4932 118.782 17.6518 119.068 17.8418C119.356 18.0318 119.637 18.2407 119.91 18.4699L121.51 16.584C121.14 16.2731 120.761 15.9998 120.372 15.7627C119.981 15.5256 119.568 15.3262 119.13 15.1644C118.692 15.0011 118.217 14.8771 117.704 14.7891C117.192 14.7012 116.622 14.6572 115.991 14.6572C114.912 14.6572 113.916 14.8535 113.008 15.2461C112.098 15.6387 111.316 16.1694 110.66 16.8384C110.004 17.5073 109.495 18.2894 109.131 19.1813C108.769 20.0748 108.586 21.0201 108.586 22.0204C108.586 23.0615 108.764 24.0288 109.12 24.9208C109.476 25.8143 109.979 26.5884 110.628 27.2433C111.278 27.8981 112.06 28.4131 112.976 28.7853C113.892 29.1575 114.912 29.3428 116.031 29.3428C116.66 29.3428 117.263 29.2847 117.836 29.17C118.411 29.0554 118.948 28.8968 119.446 28.6942C119.945 28.4917 120.41 28.2545 120.84 27.9845C121.277 27.7128 121.669 27.4286 122.024 27.1302ZM137.488 29.0978L133.613 23.7226C134.118 23.5876 134.58 23.3944 134.997 23.1448C135.413 22.8951 135.774 22.5904 136.074 22.2324C136.374 21.8744 136.61 21.4614 136.782 20.995C136.953 20.5286 137.039 19.9979 137.039 19.4027C137.039 18.7133 136.915 18.0884 136.669 17.5262C136.423 16.9656 136.072 16.4914 135.613 16.1066C135.156 15.7219 134.594 15.4235 133.932 15.2147C133.268 15.0058 132.527 14.9006 131.708 14.9006H125.309V29.0994H127.81V24.1497H130.979L134.518 29.0994H137.488V29.0978ZM134.473 19.5346C134.473 20.268 134.207 20.8537 133.67 21.2855C133.137 21.7205 132.416 21.9388 131.509 21.9388H127.807V17.1509H131.489C132.436 17.1509 133.17 17.3503 133.689 17.7523C134.215 18.1527 134.473 18.7479 134.473 19.5346ZM147.557 14.7986H145.22L138.903 29.0978H141.488L142.964 25.6698H149.753L151.209 29.0978H153.875L147.557 14.7986ZM148.829 23.4604H143.887L146.348 17.7806L148.829 23.4604ZM167 14.8991H156.336V29.0978H158.838V23.3175H166.078V21.0657H158.838V17.1509H167V14.8991Z" fill="#E8E8E8"></path><defs><linearGradient id="paint0_linear_7_33" x1="11.1419" y1="1.08103" x2="42.2716" y2="34.5238" gradientUnits="userSpaceOnUse"><stop offset="0.0326" stop-color="#FF299E"></stop><stop offset="0.2705" stop-color="#FF9190"></stop><stop offset="0.3399" stop-color="#FFA378"></stop><stop offset="0.4488" stop-color="#FFBD55"></stop><stop offset="0.5096" stop-color="#F7C05D"></stop><stop offset="0.6043" stop-color="#E1C872"></stop><stop offset="0.7205" stop-color="#BDD495"></stop><stop offset="0.777" stop-color="#A9DBA9"></stop><stop offset="0.9212" stop-color="#57F3D8"></stop><stop offset="1" stop-color="#2FFFEF"></stop></linearGradient><linearGradient id="paint1_linear_7_33" x1="12.8891" y1="27.9214" x2="18.1149" y2="36.1708" gradientUnits="userSpaceOnUse"><stop stop-color="#F646A0"></stop><stop offset="1" stop-color="#4E79B9"></stop></linearGradient></defs></svg>